<?xml version="1.0" encoding="UTF-8" standalone="no"?>
<svg
   xmlns:dc="http://purl.org/dc/elements/1.1/"
   xmlns:cc="http://creativecommons.org/ns#"
   xmlns:rdf="http://www.w3.org/1999/02/22-rdf-syntax-ns#"
   xmlns:svg="http://www.w3.org/2000/svg"
   xmlns="http://www.w3.org/2000/svg"
   xmlns:sodipodi="http://sodipodi.sourceforge.net/DTD/sodipodi-0.dtd"
   xmlns:inkscape="http://www.inkscape.org/namespaces/inkscape"
   version="1.1"
   id="Capa_1"
   x="0px"
   y="0px"
   viewBox="0 0 424.098 424.098"
   style="enable-background:new 0 0 424.098 424.098;"
   xml:space="preserve"
   sodipodi:docname="homeicon.svg"
   inkscape:version="1.0.1 (3bc2e813f5, 2020-09-07)"><metadata
   id="metadata94"><rdf:RDF><cc:Work
       rdf:about=""><dc:format>image/svg+xml</dc:format><dc:type
         rdf:resource="http://purl.org/dc/dcmitype/StillImage" /></cc:Work></rdf:RDF></metadata><defs
   id="defs92" /><sodipodi:namedview
   pagecolor="#ffffff"
   bordercolor="#666666"
   borderopacity="1"
   objecttolerance="10"
   gridtolerance="10"
   guidetolerance="10"
   inkscape:pageopacity="0"
   inkscape:pageshadow="2"
   inkscape:window-width="1500"
   inkscape:window-height="938"
   id="namedview90"
   showgrid="false"
   inkscape:zoom="1.7165844"
   inkscape:cx="212.049"
   inkscape:cy="212.049"
   inkscape:window-x="-6"
   inkscape:window-y="-6"
   inkscape:window-maximized="1"
   inkscape:current-layer="Capa_1" />
<g
   id="g57">
	<g
   id="g55">
		<path
   style="fill:#010002;"
   d="M351.191,401.923H72.901c-4.487,0-8.129-3.633-8.129-8.129V242.262l-56.664-0.114    c-3.284-0.008-6.243-1.992-7.495-5.023c-1.252-3.04-0.553-6.527,1.764-8.852L206.104,24.546c1.853-1.845,4.503-2.666,7.047-2.276    c2.414,0.39,4.511,1.845,5.731,3.942l47.43,47.43V58.499c0-4.487,3.633-8.129,8.129-8.129h47.755c4.495,0,8.129,3.642,8.129,8.129    v79.156l91.39,91.398c2.325,2.325,3.024,5.828,1.764,8.868c-1.26,3.032-4.227,5.007-7.511,5.007c-0.008,0-0.008,0-0.016,0    l-56.64-0.114v150.98C359.32,398.29,355.686,401.923,351.191,401.923z M81.03,385.666h262.033V234.67    c0-2.162,0.854-4.235,2.39-5.755c1.528-1.52,3.585-2.374,5.739-2.374c0.008,0,0.008,0,0.016,0l45.105,0.089l-79.855-79.863    c-1.528-1.528-2.382-3.593-2.382-5.747V66.628h-31.498v26.645c0,3.284-1.975,6.251-5.015,7.511    c-3.032,1.268-6.527,0.569-8.86-1.764l-57.038-57.038l-183.95,183.95l45.203,0.089c4.487,0.008,8.112,3.642,8.112,8.129    C81.03,234.149,81.03,385.666,81.03,385.666z"
   id="path53" />
	</g>
</g>
<g
   id="g59">
</g>
<g
   id="g61">
</g>
<g
   id="g63">
</g>
<g
   id="g65">
</g>
<g
   id="g67">
</g>
<g
   id="g69">
</g>
<g
   id="g71">
</g>
<g
   id="g73">
</g>
<g
   id="g75">
</g>
<g
   id="g77">
</g>
<g
   id="g79">
</g>
<g
   id="g81">
</g>
<g
   id="g83">
</g>
<g
   id="g85">
</g>
<g
   id="g87">
</g>
<path
   style="fill:#ffffff;stroke-width:0.582552"
   d="m 81.422104,308.50397 c -0.155549,-76.8869 -0.1601,-77.15099 -1.357172,-78.7542 -0.660604,-0.88473 -1.911028,-2.13863 -2.778719,-2.78646 -1.508369,-1.12616 -2.603154,-1.18844 -24.94079,-1.419 l -23.363172,-0.24114 91.383539,-91.38493 91.38354,-91.384927 29.13181,29.075462 c 31.28469,31.224185 30.8047,30.823265 35.60556,29.740495 2.79824,-0.6311 5.40975,-3.275261 6.07728,-6.153254 0.29073,-1.253417 0.53485,-8.111744 0.54249,-15.240727 l 0.0139,-12.961786 h 15.43763 15.43763 v 38.195467 c 0,26.70306 0.19349,38.57832 0.64307,39.46791 0.35369,0.69984 18.76613,19.42345 40.91655,41.60801 l 40.27348,40.33557 -23.68158,-0.13947 c -23.11944,-0.13615 -23.71994,-0.11095 -25.29728,1.06164 -0.88864,0.6606 -2.1562,1.92497 -2.8168,2.80969 -1.19701,1.60313 -1.20163,1.87025 -1.35721,78.46292 l -0.15611,76.85431 H 212.04897 81.578175 Z"
   id="path96" /><path
   style="fill:#ffffff;stroke-width:0.582552"
   d="m 81.431951,308.50387 c -0.165347,-76.87937 -0.170065,-77.15123 -1.367019,-78.75418 -0.660604,-0.88469 -1.904685,-2.13382 -2.764622,-2.77585 -1.489374,-1.11198 -2.672023,-1.17943 -24.937476,-1.42232 l -23.373953,-0.25498 91.372399,-91.37379 91.3724,-91.373787 29.13963,29.056128 c 31.27272,31.183099 30.83911,30.820959 35.61339,29.744179 2.79824,-0.6311 5.40975,-3.275261 6.07728,-6.153254 0.29073,-1.253417 0.53485,-8.111744 0.54249,-15.240727 l 0.0139,-12.961786 h 15.43763 15.43763 v 38.318817 c 0,34.48146 0.0953,38.46307 0.95188,39.75919 0.52353,0.7922 18.93622,19.46056 40.91711,41.48523 l 39.96524,40.04487 -23.6829,-0.14004 c -23.12143,-0.13672 -23.72118,-0.11157 -25.29785,1.06106 -0.88821,0.6606 -2.15544,1.92493 -2.81604,2.80962 -1.19692,1.60291 -1.20167,1.87631 -1.36517,78.46291 l -0.16405,76.85439 H 212.05086 81.597871 Z"
   id="path98" /><path
   style="fill:#ffffff;stroke-width:0.582552"
   d="m 81.551858,315.30638 c -0.0055,-71.27619 -0.188612,-82.62234 -1.373987,-85.14587 -1.981753,-4.21892 -4.552836,-4.58549 -32.699171,-4.66209 l -18.640975,-0.0507 91.447645,-91.44904 91.44765,-91.449041 28.26614,28.139918 c 15.54637,15.476955 29.13609,28.740864 30.19938,29.475353 3.70522,2.55945 9.03047,1.21042 11.44484,-2.899287 1.0886,-1.853015 1.20071,-3.175335 1.36885,-16.145209 l 0.18315,-14.126891 h 15.40013 15.40012 v 37.827967 c 0,25.24986 0.20552,38.37326 0.6181,39.46791 0.34026,0.90279 18.73583,19.78778 40.92429,42.01309 l 40.3062,40.37315 -23.69418,-0.17705 c -23.16335,-0.17307 -23.73026,-0.15013 -25.30502,1.02406 -0.88597,0.6606 -2.15135,1.9249 -2.81195,2.80956 -1.19676,1.60264 -1.20174,1.88632 -1.37817,78.46291 l -0.17706,76.85445 H 212.01757 81.557308 Z"
   id="path100" /><path
   style="fill:#ffffff;stroke-width:0.582552"
   d="m 81.553536,320.54935 c -0.0021,-35.80512 -0.163617,-70.47426 -0.358984,-77.04253 -0.401884,-13.51152 -0.721738,-14.66632 -4.588623,-16.56676 -2.122728,-1.04325 -4.020766,-1.14877 -24.956119,-1.38745 l -22.658659,-0.25834 91.363879,-91.36526 91.36387,-91.365269 28.56447,28.440394 c 15.71046,15.642217 29.40343,28.872294 30.42883,29.400165 3.86874,1.99163 9.04262,0.58742 10.85716,-2.946683 1.22932,-2.394279 1.48855,-5.575046 1.5214,-18.667432 l 0.0296,-11.796682 h 15.43763 15.43763 v 37.827967 c 0,23.97424 0.21476,38.39282 0.5864,39.37032 0.32253,0.84829 18.65248,19.67451 40.73323,41.83604 l 40.14683,40.2937 -24.06992,0.29127 c -23.02472,0.27863 -24.12574,0.34181 -25.35524,1.45501 -0.70692,0.64005 -1.6179,1.81972 -2.0244,2.62149 -1.14196,2.25235 -1.44801,21.4482 -1.46053,91.6077 l -0.0113,63.35255 H 212.049 81.557308 l -0.0038,-65.1002 z"
   id="path116" /><path
   style="fill:#ffffff;stroke-width:0.582552"
   d="m 81.545672,322.58828 c -0.0064,-34.6837 -0.163891,-69.22177 -0.349984,-76.75125 -0.385963,-15.6165 -0.718921,-17.01523 -4.488674,-18.85642 -2.023289,-0.98821 -4.325043,-1.11712 -24.961775,-1.39802 l -22.732965,-0.30944 91.344766,-91.34616 91.34478,-91.34616 28.38602,28.209942 c 15.61232,15.515467 29.25663,28.740719 30.32067,29.389448 3.76664,2.29644 9.28322,0.94994 11.15449,-2.722603 1.15118,-2.259322 1.51198,-6.84824 1.53637,-19.541261 l 0.021,-10.922853 h 15.43763 15.43763 l 0.003,37.137707 c 0.002,24.28407 0.21625,37.90475 0.61868,39.35392 0.50999,1.83658 7.50869,9.14664 40.85436,42.67195 l 40.2387,40.45572 -23.52669,0.002 c -22.56982,0.002 -23.60512,0.05 -25.45504,1.17785 -4.04976,2.46907 -3.78903,-2.76393 -4.06997,81.68802 l -0.25339,76.16854 H 211.98155 81.557308 Z"
   id="path118" /><path
   style="fill:#ffffff;stroke-width:0.582552"
   d="m 81.553204,325.20976 c -0.004,-58.01093 -0.297712,-87.38214 -0.926037,-92.5848 -0.365829,-3.02914 -1.980554,-5.14631 -4.579054,-6.00389 -1.247115,-0.41158 -10.421821,-0.80979 -24.460189,-1.06164 l -22.464525,-0.40301 91.317161,-91.28393 91.31716,-91.283945 27.78914,27.616366 c 15.28402,15.189001 28.88953,28.413497 30.23448,29.387768 2.87935,2.085791 5.65931,2.305321 8.6877,0.686051 3.9642,-2.119641 4.21347,-3.169146 4.53019,-19.073615 l 0.28301,-14.211612 h 15.33308 15.33308 l 0.16926,38.348657 0.16925,38.34864 1.59755,2.094 c 0.87865,1.15169 19.12935,19.74361 40.55713,41.31536 l 38.9596,39.22137 -23.76694,0.29127 c -22.9803,0.28164 -23.82135,0.33169 -25.41078,1.51202 -0.90411,0.67141 -1.93648,2.11323 -2.29414,3.20404 -0.90252,2.7525 -1.37122,37.09334 -1.38074,101.16281 l -0.008,53.15788 H 212.049 81.557308 l -0.0041,-60.43979 z"
   id="path120" /><path
   style="fill:#ffffff;stroke-width:0.582552"
   d="m 81.360337,309.77213 c -0.188988,-41.73258 -0.515534,-76.74064 -0.725658,-77.79569 -0.554843,-2.78589 -3.247498,-5.22453 -6.224361,-5.63716 -1.355817,-0.18794 -12.100097,-0.53096 -23.87618,-0.76228 l -21.411058,-0.42058 91.31732,-91.27391 91.31732,-91.273921 27.96251,27.724919 c 15.37938,15.248705 28.9849,28.46869 30.23448,29.377746 2.69274,1.958926 5.54961,2.154206 8.48492,0.579986 3.7735,-2.023752 4.13659,-3.572797 4.51994,-19.283308 l 0.34197,-14.014429 h 15.3198 15.31981 l 0.17288,38.356837 0.17288,38.35684 2.10517,2.56745 c 1.15785,1.4121 19.40539,20.00033 40.55011,41.30718 l 38.44493,38.73972 -23.65609,0.29127 c -17.75367,0.21861 -23.98314,0.47809 -24.96683,1.03997 -2.13196,1.21776 -3.07092,3.22972 -3.35134,7.18117 -0.46183,6.50754 -0.86052,53.9909 -0.86644,103.19197 l -0.006,47.62364 H 212.12232 81.70395 Z"
   id="path122" /></svg>
