<?xml version="1.0" encoding="UTF-8" standalone="no"?>
<svg
   xmlns:dc="http://purl.org/dc/elements/1.1/"
   xmlns:cc="http://creativecommons.org/ns#"
   xmlns:rdf="http://www.w3.org/1999/02/22-rdf-syntax-ns#"
   xmlns:svg="http://www.w3.org/2000/svg"
   xmlns="http://www.w3.org/2000/svg"
   xmlns:sodipodi="http://sodipodi.sourceforge.net/DTD/sodipodi-0.dtd"
   xmlns:inkscape="http://www.inkscape.org/namespaces/inkscape"
   viewBox="0 0 64 64"
   version="1.1"
   id="svg71"
   sodipodi:docname="user.svg"
   inkscape:version="1.0.1 (3bc2e813f5, 2020-09-07)">
  <metadata
     id="metadata77">
    <rdf:RDF>
      <cc:Work
         rdf:about="">
        <dc:format>image/svg+xml</dc:format>
        <dc:type
           rdf:resource="http://purl.org/dc/dcmitype/StillImage" />
      </cc:Work>
    </rdf:RDF>
  </metadata>
  <defs
     id="defs75" />
  <sodipodi:namedview
     pagecolor="#ffffff"
     bordercolor="#666666"
     borderopacity="1"
     objecttolerance="10"
     gridtolerance="10"
     guidetolerance="10"
     inkscape:pageopacity="0"
     inkscape:pageshadow="2"
     inkscape:window-width="1500"
     inkscape:window-height="938"
     id="namedview73"
     showgrid="false"
     inkscape:zoom="11.375"
     inkscape:cx="32"
     inkscape:cy="32"
     inkscape:window-x="-6"
     inkscape:window-y="-6"
     inkscape:window-maximized="1"
     inkscape:current-layer="svg71" />
  <title
     id="title66" />
  <g
     id="User">
    <path
       d="M41.2452,33.0349a16,16,0,1,0-18.49,0A26.0412,26.0412,0,0,0,4,58a2,2,0,0,0,2,2H58a2,2,0,0,0,2-2A26.0412,26.0412,0,0,0,41.2452,33.0349ZM20,20A12,12,0,1,1,32,32,12.0137,12.0137,0,0,1,20,20ZM8.09,56A22.0293,22.0293,0,0,1,30,36h4A22.0293,22.0293,0,0,1,55.91,56Z"
       id="path68" />
  </g>
  <path
     style="fill:#ffffff;stroke-width:0.0879121"
     d="M 5.3626374,59.840568 C 4.9127707,59.697978 4.2546311,59.004049 4.1270959,58.537838 4.0009336,58.076647 4.0691512,56.223701 4.2681926,54.705327 5.5553349,44.88645 12.317942,36.624531 21.67033,33.445026 c 0.531868,-0.180818 0.999111,-0.356833 1.038319,-0.391146 0.03921,-0.03431 -0.198156,-0.272796 -0.527473,-0.529964 -3.506055,-2.737918 -5.796005,-7.023156 -6.074382,-11.367134 -0.189096,-2.95078 0.332144,-5.614759 1.602424,-8.189749 1.300254,-2.635748 3.040713,-4.6273001 5.458339,-6.2458034 4.660272,-3.119864 10.56903,-3.5475385 15.670155,-1.1342018 4.546213,2.150809 7.808907,6.3618202 8.828553,11.3946172 0.17747,0.875962 0.201419,1.246052 0.198166,3.062311 -0.0032,1.806022 -0.02872,2.182065 -0.202551,2.989011 -0.832482,3.864457 -2.907088,7.22651 -5.884244,9.535856 -0.303619,0.235514 -0.521202,0.455035 -0.483516,0.487825 0.03768,0.03279 0.503682,0.207463 1.03555,0.388163 3.362288,1.142317 6.279723,2.857524 9.046546,5.318606 3.64405,3.241375 6.516705,7.987107 7.744513,12.794221 0.649907,2.544517 1.016606,6.027666 0.739608,7.025282 -0.125984,0.453731 -0.80328,1.124949 -1.27713,1.265667 -0.497672,0.147792 -52.7538321,0.139918 -53.2205696,-0.008 z M 55.912088,55.701044 c 0,-0.164426 -0.07849,-0.758047 -0.174412,-1.319157 -1.206665,-7.058236 -5.646773,-13.030927 -11.996911,-16.137862 -2.582373,-1.263479 -5.028529,-1.942386 -7.952789,-2.20722 -1.65168,-0.149584 -7.693535,-0.05863 -8.886877,0.133787 -2.690744,0.433853 -4.864412,1.13327 -7.032139,2.262717 C 13.675169,41.66045 9.4429634,47.475887 8.262324,54.381887 8.166398,54.942997 8.0879121,55.536618 8.0879121,55.701044 V 56 H 32 55.912088 Z M 34.000218,31.867371 c 3.19945,-0.518899 6.139284,-2.402735 7.947589,-5.092789 0.688614,-1.024392 1.071468,-1.79531 1.436408,-2.892373 C 43.88563,22.374891 43.99653,21.671758 43.99653,20 c 0,-1.671758 -0.1109,-2.374891 -0.612315,-3.882209 C 42.003887,11.968336 38.417122,8.9000591 34.054818,8.137014 33.046736,7.9606823 30.947153,7.9576585 29.952532,8.1311063 25.617436,8.8870838 22.07053,11.901577 20.634251,16.050654 20.133652,17.496769 20.004564,18.306399 20.004564,20 c 0,1.116436 0.04145,1.694659 0.163841,2.285714 0.905541,4.372971 3.883058,7.739411 8.090533,9.147321 0.495509,0.165807 1.233364,0.357179 1.639676,0.425269 1.004531,0.16834 3.091112,0.172953 4.101604,0.0091 z"
     id="path79" />
</svg>
