<?xml version="1.0" encoding="UTF-8" standalone="no"?>
<svg
   xmlns:dc="http://purl.org/dc/elements/1.1/"
   xmlns:cc="http://creativecommons.org/ns#"
   xmlns:rdf="http://www.w3.org/1999/02/22-rdf-syntax-ns#"
   xmlns:svg="http://www.w3.org/2000/svg"
   xmlns="http://www.w3.org/2000/svg"
   xmlns:sodipodi="http://sodipodi.sourceforge.net/DTD/sodipodi-0.dtd"
   xmlns:inkscape="http://www.inkscape.org/namespaces/inkscape"
   version="1.1"
   id="Layer_1"
   x="0px"
   y="0px"
   viewBox="0 0 459.334 459.334"
   style="enable-background:new 0 0 459.334 459.334;"
   xml:space="preserve"
   sodipodi:docname="usernotif.svg"
   inkscape:version="1.0.1 (3bc2e813f5, 2020-09-07)"><metadata
   id="metadata47"><rdf:RDF><cc:Work
       rdf:about=""><dc:format>image/svg+xml</dc:format><dc:type
         rdf:resource="http://purl.org/dc/dcmitype/StillImage" /></cc:Work></rdf:RDF></metadata><defs
   id="defs45" /><sodipodi:namedview
   pagecolor="#ffffff"
   bordercolor="#666666"
   borderopacity="1"
   objecttolerance="10"
   gridtolerance="10"
   guidetolerance="10"
   inkscape:pageopacity="0"
   inkscape:pageshadow="2"
   inkscape:window-width="1500"
   inkscape:window-height="938"
   id="namedview43"
   showgrid="false"
   inkscape:zoom="1.5849033"
   inkscape:cx="229.66701"
   inkscape:cy="229.66701"
   inkscape:window-x="-6"
   inkscape:window-y="-6"
   inkscape:window-maximized="1"
   inkscape:current-layer="Layer_1" />
<g
   id="g10">
	<g
   id="g8">
		<g
   id="g6">
			<path
   d="M175.216,404.514c-0.001,0.12-0.009,0.239-0.009,0.359c0,30.078,24.383,54.461,54.461,54.461     s54.461-24.383,54.461-54.461c0-0.12-0.008-0.239-0.009-0.359H175.216z"
   id="path2" />
			<path
   d="M403.549,336.438l-49.015-72.002c0-22.041,0-75.898,0-89.83c0-60.581-43.144-111.079-100.381-122.459V24.485     C254.152,10.963,243.19,0,229.667,0s-24.485,10.963-24.485,24.485v27.663c-57.237,11.381-100.381,61.879-100.381,122.459     c0,23.716,0,76.084,0,89.83l-49.015,72.002c-5.163,7.584-5.709,17.401-1.419,25.511c4.29,8.11,12.712,13.182,21.887,13.182     H383.08c9.175,0,17.597-5.073,21.887-13.182C409.258,353.839,408.711,344.022,403.549,336.438z"
   id="path4" />
		</g>
	</g>
</g>
<g
   id="g12">
</g>
<g
   id="g14">
</g>
<g
   id="g16">
</g>
<g
   id="g18">
</g>
<g
   id="g20">
</g>
<g
   id="g22">
</g>
<g
   id="g24">
</g>
<g
   id="g26">
</g>
<g
   id="g28">
</g>
<g
   id="g30">
</g>
<g
   id="g32">
</g>
<g
   id="g34">
</g>
<g
   id="g36">
</g>
<g
   id="g38">
</g>
<g
   id="g40">
</g>
<path
   style="fill:#ffffff;stroke-width:0.630953"
   d="m 69.991241,373.92667 c -7.956644,-2.15401 -14.577432,-8.71787 -17.069615,-16.92284 -1.660663,-5.46738 -1.336712,-10.99244 0.935529,-15.95566 0.838184,-1.83084 12.757831,-19.83004 26.488103,-39.99823 l 24.964132,-36.66945 0.22306,-53.16334 0.22306,-53.16334 1.69282,-7.67199 c 3.3323,-15.1022 9.82238,-31.18533 17.19977,-42.62296 13.36877,-20.726434 33.2636,-37.682333 55.46088,-47.268034 5.99345,-2.588214 18.277,-6.595495 23.80961,-7.767444 l 1.69805,-0.359691 0.19481,-17.190761 0.19481,-17.19076 1.7951,-3.65792 c 2.29054,-4.6674622 6.91049,-9.2874152 11.58062,-11.5806205 3.31776,-1.6291408 4.27953,-1.79719952 10.28503,-1.79719952 6.00549,0 6.96726,0.16805872 10.28502,1.79719952 4.67014,2.2932053 9.29009,6.9131583 11.58062,11.5806205 l 1.79511,3.65792 0.1948,17.19076 0.19481,17.190761 1.69805,0.359691 c 0.93393,0.197829 5.1052,1.349329 9.2695,2.558887 46.79615,13.592387 81.52761,53.858441 88.29277,102.362581 0.82739,5.93212 0.98712,15.13342 0.98712,56.86257 v 49.78521 l 24.99404,36.71337 c 13.74672,20.19236 25.67122,38.19253 26.49889,40.00041 5.2765,11.52539 -0.16258,25.44678 -12.27107,31.40789 l -4.17724,2.05649 -158.06716,0.1183 c -123.92192,0.0927 -158.690127,-0.0504 -160.951029,-0.66242 z"
   id="path49" /><path
   style="fill:#ffffff;stroke-width:0.630953"
   d="m 224.61938,458.62369 c -25.65056,-2.19216 -46.06847,-22.77164 -48.90574,-49.29273 l -0.45563,-4.25893 h 54.409 54.40899 l -0.45563,4.25893 c -2.11961,19.81289 -13.94993,36.56629 -31.56966,44.70711 -8.26753,3.81983 -17.78176,5.4103 -27.43133,4.58562 z"
   id="path51" /></svg>
