<?xml version="1.0" encoding="UTF-8" standalone="no"?>
<svg
   xmlns:dc="http://purl.org/dc/elements/1.1/"
   xmlns:cc="http://creativecommons.org/ns#"
   xmlns:rdf="http://www.w3.org/1999/02/22-rdf-syntax-ns#"
   xmlns:svg="http://www.w3.org/2000/svg"
   xmlns="http://www.w3.org/2000/svg"
   xmlns:sodipodi="http://sodipodi.sourceforge.net/DTD/sodipodi-0.dtd"
   xmlns:inkscape="http://www.inkscape.org/namespaces/inkscape"
   viewBox="0 0 59.299999 59.299997"
   version="1.1"
   id="svg71"
   sodipodi:docname="user.svg"
   inkscape:version="1.0.1 (3bc2e813f5, 2020-09-07)"
   width="59.299999"
   height="59.299999">
  <metadata
     id="metadata77">
    <rdf:RDF>
      <cc:Work
         rdf:about="">
        <dc:format>image/svg+xml</dc:format>
        <dc:type
           rdf:resource="http://purl.org/dc/dcmitype/StillImage" />
        <dc:title></dc:title>
      </cc:Work>
    </rdf:RDF>
  </metadata>
  <defs
     id="defs75" />
  <sodipodi:namedview
     pagecolor="#ffffff"
     bordercolor="#666666"
     borderopacity="1"
     objecttolerance="10"
     gridtolerance="10"
     guidetolerance="10"
     inkscape:pageopacity="0"
     inkscape:pageshadow="2"
     inkscape:window-width="1500"
     inkscape:window-height="938"
     id="namedview73"
     showgrid="false"
     inkscape:zoom="7.2407734"
     inkscape:cx="38.585193"
     inkscape:cy="33.794013"
     inkscape:window-x="-6"
     inkscape:window-y="-6"
     inkscape:window-maximized="1"
     inkscape:current-layer="svg71"
     inkscape:document-rotation="0"
     fit-margin-top="0"
     fit-margin-left="0"
     fit-margin-right="0"
     fit-margin-bottom="0" />
  <g
     id="User"
     transform="matrix(0.71428571,0,0,0.71398211,6.7461398,4.5405657)"
     style="stroke-width:1.4003">
    <path
       d="m 41.2452,33.0349 a 16,16 0 1 0 -18.49,0 A 26.0412,26.0412 0 0 0 4,58 2,2 0 0 0 6,60 H 58 A 2,2 0 0 0 60,58 26.0412,26.0412 0 0 0 41.2452,33.0349 Z M 20,20 A 12,12 0 1 1 32,32 12.0137,12.0137 0 0 1 20,20 Z M 8.09,56 A 22.0293,22.0293 0 0 1 30,36 h 4 a 22.0293,22.0293 0 0 1 21.91,20 z"
       id="path68"
       style="stroke-width:1.4003" />
  </g>
  <path
     style="fill:#000000;stroke-width:0.0879121"
     d="m 10.576595,47.265659 c -0.321334,-0.101806 -0.7914325,-0.59726 -0.8825295,-0.930126 -0.09012,-0.329282 -0.04139,-1.652252 0.100784,-2.736344 0.9193865,-7.010503 5.7498195,-12.909365 12.4300965,-15.179475 0.379906,-0.129101 0.713651,-0.254773 0.741657,-0.279271 0.02801,-0.0245 -0.14154,-0.194771 -0.376766,-0.378385 -2.504325,-1.954825 -4.140004,-5.014408 -4.338845,-8.11593 -0.135068,-2.106804 0.237246,-4.008838 1.144589,-5.847335 0.928752,-1.881876 2.171937,-3.303808 3.898813,-4.4593903 3.328766,-2.227527 7.549307,-2.532879 11.192968,-0.8098 3.247295,1.5356393 5.57779,4.5422253 6.306109,8.1355523 0.126765,0.625421 0.143871,0.889658 0.141547,2.186435 -0.0023,1.289467 -0.02051,1.557955 -0.144679,2.1341 -0.59463,2.759154 -2.076491,5.159599 -4.203031,6.808431 -0.216871,0.168152 -0.372288,0.324887 -0.345369,0.348298 0.02691,0.02341 0.359773,0.148125 0.739679,0.277142 2.401634,0.815593 4.485516,2.04022 6.461819,3.797389 2.602892,2.314284 4.654788,5.702651 5.531794,9.134845 0.46422,1.81674 0.726147,4.303646 0.528292,5.015926 -0.08999,0.323956 -0.573772,0.803193 -0.912236,0.903664 -0.35548,0.10552 -37.681308,0.0999 -38.014692,-0.0057 z m 36.106749,-2.955546 c 0,-0.117397 -0.05606,-0.541232 -0.124579,-0.941855 -0.861904,-5.039454 -4.033409,-9.303849 -8.569222,-11.522145 -1.844552,-0.902101 -3.591806,-1.386828 -5.680564,-1.575915 -1.179771,-0.106801 -5.495382,-0.04186 -6.347769,0.09552 -1.92196,0.309763 -3.47458,0.809134 -5.022957,1.615539 -4.424136,2.304121 -7.44714,6.456239 -8.290453,11.386999 -0.06852,0.400623 -0.12458,0.824458 -0.12458,0.941855 V 44.52356 H 29.603282 46.683344 Z M 31.032009,27.293297 c 2.285322,-0.370485 4.385203,-1.71551 5.676849,-3.63616 0.491867,-0.731398 0.765334,-1.28182 1.026006,-2.065103 0.358154,-1.076198 0.437368,-1.578223 0.437368,-2.771828 0,-1.193605 -0.07922,-1.695629 -0.437368,-2.771828 -0.985948,-2.962637 -3.547923,-5.153331 -6.663855,-5.698131 -0.720058,-0.125898 -2.21976,-0.128056 -2.930204,-0.0042 -3.096497,0.539754 -5.630001,2.692047 -6.655915,5.654414 -0.357571,1.0325 -0.449777,1.610562 -0.449777,2.819763 0,0.797115 0.02961,1.209956 0.11703,1.631958 0.646815,3.122223 2.773613,5.525802 5.778952,6.531024 0.353935,0.118383 0.880974,0.255019 1.171197,0.303635 0.717522,0.120192 2.207937,0.123485 2.929717,0.0065 z"
     id="path79" />
  <circle
     style="font-variation-settings:normal;opacity:1;vector-effect:none;fill:#000000;fill-opacity:0;fill-rule:evenodd;stroke:#000000;stroke-width:3.3;stroke-linecap:butt;stroke-linejoin:miter;stroke-miterlimit:4;stroke-dasharray:none;stroke-dashoffset:0;stroke-opacity:1;paint-order:markers fill stroke;stop-color:#000000;stop-opacity:1"
     id="path844"
     cy="29.65"
     cx="29.65"
     r="28" />
  <path
     style="opacity:1;fill:#ffffff;fill-opacity:0;stroke:none;stroke-width:3.3;stroke-miterlimit:4;stroke-dasharray:none;stroke-opacity:1;paint-order:markers fill stroke"
     d="M 49.537415,45.068756 C 49.506805,37.944236 44.599534,31.163532 37.54729,28.501202 l -1.056775,-0.398948 1.243265,-1.26497 c 1.725668,-1.755796 2.629021,-3.415166 3.121722,-5.734295 0.238455,-1.122398 0.237659,-3.477442 -0.0016,-4.612937 -0.908611,-4.312884 -4.122255,-7.6622423 -8.476707,-8.8346813 -1.225293,-0.329911 -4.352631,-0.328704 -5.582275,0.0022 -2.12463,0.57167 -3.726165,1.499002 -5.285089,3.0602083 -1.594557,1.596894 -2.475311,3.127432 -3.074997,5.343605 -0.316487,1.169593 -0.307266,4.327295 0.01615,5.529127 0.583335,2.167727 1.72088,4.08355 3.315206,5.583377 0.610376,0.574198 0.941523,0.967783 0.841074,0.999658 -1.62897,0.516914 -3.314707,1.32771 -4.827924,2.322105 -1.510169,0.992394 -4.016597,3.480235 -4.997724,4.960662 -1.961716,2.960043 -3.0009025,6.081003 -3.1871425,9.571853 L 9.5116335,46.58096 8.5963442,45.338982 C 4.6669894,40.007045 2.8657393,33.602026 3.4893778,27.179069 4.4989597,16.781215 11.63649,7.8866427 21.574191,4.6423277 c 4.134601,-1.349804 8.828059,-1.618382 13.19513,-0.755078 7.862187,1.554235 14.651351,6.7077253 18.297795,13.8894153 3.431043,6.757456 3.789368,14.560088 0.990651,21.571784 -0.966765,2.422062 -2.615439,5.217051 -4.107587,6.963572 l -0.405385,0.474493 -0.0074,-1.717758 z"
     id="path858" />
  <path
     style="opacity:1;fill:#ffffff;fill-opacity:0;stroke:none;stroke-width:3.3;stroke-miterlimit:4;stroke-dasharray:none;stroke-opacity:1;paint-order:markers fill stroke"
     d="m 28.595785,27.241293 c -1.928847,-0.22853 -3.52868,-1.026724 -4.973059,-2.481177 -1.641371,-1.652819 -2.348925,-3.233395 -2.455009,-5.484136 -0.165908,-3.520029 1.590261,-6.501088 4.755049,-8.07159 4.823045,-2.3933993 10.725674,0.431097 11.952403,5.719405 0.239356,1.031842 0.232695,2.970322 -0.01349,3.924112 -0.105896,0.410278 -0.425337,1.221508 -0.709869,1.802734 -0.730868,1.492976 -2.213364,2.975712 -3.707297,3.707898 -1.630021,0.798883 -3.177982,1.080704 -4.848732,0.882754 z"
     id="path860" />
  <path
     style="opacity:1;fill:#ffffff;fill-opacity:0;stroke:none;stroke-width:3.3;stroke-miterlimit:4;stroke-dasharray:none;stroke-opacity:1;paint-order:markers fill stroke"
     d="m 12.759198,43.364321 c 0.331424,-2.069696 1.212336,-4.263893 2.491346,-6.205504 0.753772,-1.14427 2.955375,-3.34843 4.092885,-4.097637 1.965293,-1.294419 4.046345,-2.135657 6.221545,-2.51498 1.505539,-0.262544 6.561893,-0.25951 8.080829,0.0048 3.323824,0.578486 6.229866,2.130961 8.626787,4.608633 2.379586,2.459752 3.616103,4.996871 4.280021,8.781866 l 0.08178,0.466224 H 29.613249 12.592108 Z"
     id="path862" />
  <path
     style="opacity:1;fill:#ffffff;fill-opacity:0;stroke:none;stroke-width:3.3;stroke-miterlimit:4;stroke-dasharray:none;stroke-opacity:1;paint-order:markers fill stroke"
     d="M 49.537415,45.068756 C 49.506805,37.944236 44.599534,31.163532 37.54729,28.501202 l -1.056775,-0.398948 1.243265,-1.26497 c 1.725668,-1.755796 2.629021,-3.415166 3.121722,-5.734295 0.238455,-1.122398 0.237659,-3.477442 -0.0016,-4.612937 -0.908611,-4.312884 -4.122255,-7.6622423 -8.476707,-8.8346813 -1.225293,-0.329911 -4.352631,-0.328704 -5.582275,0.0022 -2.12463,0.57167 -3.726165,1.499002 -5.285089,3.0602083 -1.594557,1.596894 -2.475311,3.127432 -3.074997,5.343605 -0.316487,1.169593 -0.307266,4.327295 0.01615,5.529127 0.583335,2.167727 1.72088,4.08355 3.315206,5.583377 0.610376,0.574198 0.941523,0.967783 0.841074,0.999658 -1.62897,0.516914 -3.314707,1.32771 -4.827924,2.322105 -1.510169,0.992394 -4.016597,3.480235 -4.997724,4.960662 -1.961716,2.960043 -3.0009025,6.081003 -3.1871425,9.571853 L 9.5116335,46.58096 8.5963442,45.338982 C 4.6669894,40.007045 2.8657393,33.602026 3.4893778,27.179069 4.4989597,16.781215 11.63649,7.8866427 21.574191,4.6423277 c 4.134601,-1.349804 8.828059,-1.618382 13.19513,-0.755078 7.862187,1.554235 14.651351,6.7077253 18.297795,13.8894153 3.431043,6.757456 3.789368,14.560088 0.990651,21.571784 -0.966765,2.422062 -2.615439,5.217051 -4.107587,6.963572 l -0.405385,0.474493 -0.0074,-1.717758 z"
     id="path864" />
  <path
     style="opacity:1;fill:#ffffff;fill-opacity:0;stroke:none;stroke-width:3.3;stroke-miterlimit:4;stroke-dasharray:none;stroke-opacity:1;paint-order:markers fill stroke"
     d="M 49.537415,45.068756 C 49.506805,37.944236 44.599534,31.163532 37.54729,28.501202 l -1.056775,-0.398948 1.243265,-1.26497 c 1.725668,-1.755796 2.629021,-3.415166 3.121722,-5.734295 0.238455,-1.122398 0.237659,-3.477442 -0.0016,-4.612937 -0.908611,-4.312884 -4.122255,-7.6622423 -8.476707,-8.8346813 -1.225293,-0.329911 -4.352631,-0.328704 -5.582275,0.0022 -2.12463,0.57167 -3.726165,1.499002 -5.285089,3.0602083 -1.594557,1.596894 -2.475311,3.127432 -3.074997,5.343605 -0.316487,1.169593 -0.307266,4.327295 0.01615,5.529127 0.583335,2.167727 1.72088,4.08355 3.315206,5.583377 0.610376,0.574198 0.941523,0.967783 0.841074,0.999658 -1.62897,0.516914 -3.314707,1.32771 -4.827924,2.322105 -1.510169,0.992394 -4.016597,3.480235 -4.997724,4.960662 -1.961716,2.960043 -3.0009025,6.081003 -3.1871425,9.571853 L 9.5116335,46.58096 8.5963442,45.338982 C 4.6669894,40.007045 2.8657393,33.602026 3.4893778,27.179069 4.4989597,16.781215 11.63649,7.8866427 21.574191,4.6423277 c 4.134601,-1.349804 8.828059,-1.618382 13.19513,-0.755078 7.862187,1.554235 14.651351,6.7077253 18.297795,13.8894153 3.431043,6.757456 3.789368,14.560088 0.990651,21.571784 -0.966765,2.422062 -2.615439,5.217051 -4.107587,6.963572 l -0.405385,0.474493 -0.0074,-1.717758 z"
     id="path866" />
  <path
     style="opacity:1;fill:#ffffff;fill-opacity:1;stroke:none;stroke-width:3.3;stroke-miterlimit:4;stroke-dasharray:none;stroke-opacity:1;paint-order:markers fill stroke"
     d="M 49.537415,45.068756 C 49.506805,37.944236 44.599534,31.163532 37.54729,28.501202 l -1.056775,-0.398948 1.243265,-1.26497 c 1.725668,-1.755796 2.629021,-3.415166 3.121722,-5.734295 0.238455,-1.122398 0.237659,-3.477442 -0.0016,-4.612937 -0.908611,-4.312884 -4.122255,-7.6622423 -8.476707,-8.8346813 -1.225293,-0.329911 -4.352631,-0.328704 -5.582275,0.0022 -2.12463,0.57167 -3.726165,1.499002 -5.285089,3.0602083 -1.594557,1.596894 -2.475311,3.127432 -3.074997,5.343605 -0.316487,1.169593 -0.307266,4.327295 0.01615,5.529127 0.583335,2.167727 1.72088,4.08355 3.315206,5.583377 0.610376,0.574198 0.941523,0.967783 0.841074,0.999658 -1.62897,0.516914 -3.314707,1.32771 -4.827924,2.322105 -1.510169,0.992394 -4.016597,3.480235 -4.997724,4.960662 -1.961716,2.960043 -3.0009025,6.081003 -3.1871425,9.571853 L 9.5116335,46.58096 8.5963442,45.338982 C 4.6669894,40.007045 2.8657393,33.602026 3.4893778,27.179069 4.4989597,16.781215 11.63649,7.8866427 21.574191,4.6423277 c 4.134601,-1.349804 8.828059,-1.618382 13.19513,-0.755078 7.862187,1.554235 14.651351,6.7077253 18.297795,13.8894153 3.431043,6.757456 3.789368,14.560088 0.990651,21.571784 -0.966765,2.422062 -2.615439,5.217051 -4.107587,6.963572 l -0.405385,0.474493 -0.0074,-1.717758 z"
     id="path868" />
  <path
     style="opacity:1;fill:#ffffff;fill-opacity:1;stroke:none;stroke-width:3.3;stroke-miterlimit:4;stroke-dasharray:none;stroke-opacity:1;paint-order:markers fill stroke"
     d="M 49.53639,45.133386 C 49.53119,44.105658 49.44677,43.060821 49.314347,42.384994 48.09645,36.169334 43.726327,30.944426 37.787851,28.60394 l -1.323253,-0.521524 0.870512,-0.819908 c 1.637057,-1.541894 2.738258,-3.31554 3.326504,-5.357826 0.385859,-1.339635 0.478173,-4.08342 0.182579,-5.426696 C 39.88612,12.1242 36.725744,8.8286677 32.384341,7.6563407 c -1.206778,-0.32587 -4.336453,-0.326811 -5.59129,-0.0017 -1.170539,0.303288 -3.181251,1.273765 -4.132413,1.994522 -1.580926,1.1979703 -2.950706,2.9911493 -3.679935,4.8174093 -0.653383,1.636308 -0.764552,2.266584 -0.763726,4.329929 8.7e-4,2.285253 0.16443,3.051695 1.047705,4.910895 0.703981,1.481805 1.448295,2.497334 2.637033,3.597922 0.735946,0.681375 0.840652,0.825803 0.646834,0.892234 -2.9855,1.023284 -5.090946,2.283973 -7.230621,4.329515 -3.471945,3.319201 -5.4653115,7.6717 -5.7234125,12.497024 l -0.08284,1.548787 -0.827225,-1.113644 C 5.6802526,41.414883 3.9717869,37.030878 3.4850541,32.117362 2.4653095,21.823147 7.9041599,11.601464 17.062462,6.6002097 c 5.519136,-3.013942 11.852184,-3.939687 18.060462,-2.64002 7.701037,1.612167 14.344971,6.7277913 17.944192,13.8164753 3.433044,6.761399 3.791,14.555998 0.990651,21.571784 -0.963198,2.413127 -2.677935,5.323999 -4.11127,6.979133 l -0.401702,0.463865 z"
     id="path870" />
  <path
     style="opacity:1;fill:#ffffff;fill-opacity:1;stroke:none;stroke-width:3.3;stroke-miterlimit:4;stroke-dasharray:none;stroke-opacity:1;paint-order:markers fill stroke"
     d="m 28.595785,27.241293 c -1.928847,-0.22853 -3.52868,-1.026724 -4.973059,-2.481177 -1.641371,-1.652819 -2.348925,-3.233395 -2.455009,-5.484136 -0.165908,-3.520029 1.590261,-6.501088 4.755049,-8.07159 4.823045,-2.3933993 10.725674,0.431097 11.952403,5.719405 0.239356,1.031842 0.232695,2.970322 -0.01349,3.924112 -0.105896,0.410278 -0.425337,1.221508 -0.709869,1.802734 -0.730868,1.492976 -2.213364,2.975712 -3.707297,3.707898 -1.630021,0.798883 -3.177982,1.080704 -4.848732,0.882754 z"
     id="path872" />
  <path
     style="opacity:1;fill:#ffffff;fill-opacity:1;stroke:none;stroke-width:3.3;stroke-miterlimit:4;stroke-dasharray:none;stroke-opacity:1;paint-order:markers fill stroke"
     d="m 12.759198,43.364321 c 0.331424,-2.069696 1.212336,-4.263893 2.491346,-6.205504 0.753772,-1.14427 2.955375,-3.34843 4.092885,-4.097637 1.965293,-1.294419 4.046345,-2.135657 6.221545,-2.51498 1.505539,-0.262544 6.561893,-0.25951 8.080829,0.0048 3.323824,0.578486 6.229866,2.130961 8.626787,4.608633 2.379586,2.459752 3.616103,4.996871 4.280021,8.781866 l 0.08178,0.466224 H 29.613249 12.592108 Z"
     id="path874" />
  <path
     style="opacity:1;fill:#ffffff;fill-opacity:1;stroke:none;stroke-width:3.30001;stroke-miterlimit:4;stroke-dasharray:none;stroke-opacity:1;paint-order:markers fill stroke"
     d="M 25.981109,55.666098 C 20.369965,54.854297 14.876279,52.091715 11.00265,48.133958 L 10.281878,47.397532 H 29.61254 c 10.631864,0 19.330663,0.04057 19.330663,0.09015 0,0.10543 -2.271501,2.1781 -3.176456,2.898412 -3.497272,2.783702 -8.361486,4.771487 -13.116523,5.36013 -1.598325,0.197862 -5.032874,0.156596 -6.669115,-0.08013 z"
     id="path876" />
  <path
     style="opacity:1;fill:#ffffff;fill-opacity:1;stroke:none;stroke-width:3.30001;stroke-miterlimit:4;stroke-dasharray:none;stroke-opacity:1;paint-order:markers fill stroke"
     d="M 25.981109,55.666098 C 20.340392,54.850018 14.785074,52.045554 10.93398,48.069929 l -0.651334,-0.672397 h 19.330278 c 10.631653,0 19.330279,0.04425 19.330279,0.09833 0,0.05408 -0.699166,0.729211 -1.553702,1.500292 -4.174993,3.767258 -9.187468,6.062797 -14.739277,6.750076 -1.598325,0.197862 -5.032874,0.156596 -6.669115,-0.08013 z"
     id="path878" />
</svg>
