<?xml version="1.0" encoding="UTF-8" standalone="no"?>
<svg
   xmlns:dc="http://purl.org/dc/elements/1.1/"
   xmlns:cc="http://creativecommons.org/ns#"
   xmlns:rdf="http://www.w3.org/1999/02/22-rdf-syntax-ns#"
   xmlns:svg="http://www.w3.org/2000/svg"
   xmlns="http://www.w3.org/2000/svg"
   xmlns:sodipodi="http://sodipodi.sourceforge.net/DTD/sodipodi-0.dtd"
   xmlns:inkscape="http://www.inkscape.org/namespaces/inkscape"
   version="1.1"
   id="Layer_1"
   x="0px"
   y="0px"
   viewBox="0 0 512 512"
   style="enable-background:new 0 0 512 512;"
   xml:space="preserve"
   sodipodi:docname="chat.svg"
   inkscape:version="1.0.1 (3bc2e813f5, 2020-09-07)"><metadata
   id="metadata220"><rdf:RDF><cc:Work
       rdf:about=""><dc:format>image/svg+xml</dc:format><dc:type
         rdf:resource="http://purl.org/dc/dcmitype/StillImage" /></cc:Work></rdf:RDF></metadata><defs
   id="defs218" /><sodipodi:namedview
   pagecolor="#ffffff"
   bordercolor="#666666"
   borderopacity="1"
   objecttolerance="10"
   gridtolerance="10"
   guidetolerance="10"
   inkscape:pageopacity="0"
   inkscape:pageshadow="2"
   inkscape:window-width="1500"
   inkscape:window-height="938"
   id="namedview216"
   showgrid="false"
   inkscape:zoom="1.421875"
   inkscape:cx="256"
   inkscape:cy="256"
   inkscape:window-x="-6"
   inkscape:window-y="-6"
   inkscape:window-maximized="1"
   inkscape:current-layer="Layer_1" />
<path
   style="fill:#211E48;"
   d="M80.408,464.664c-3.653,0-7.34-0.796-10.812-2.429c-9.422-4.43-15.116-14.006-14.508-24.401  l3.266-55.782H33.326C14.95,382.052,0,367.103,0,348.726V167.089c0-18.377,14.95-33.326,33.326-33.326h283.892  c18.377,0,33.326,14.95,33.326,33.326v181.637c0,18.376-14.95,33.326-33.326,33.326H285.82c-7.631,0-13.817-6.186-13.817-13.817  s6.186-13.817,13.817-13.817h31.399c3.139,0,5.693-2.553,5.693-5.693V167.089c0-3.139-2.553-5.693-5.693-5.693H33.326  c-3.138,0-5.693,2.553-5.693,5.693v181.637c0,3.138,2.553,5.693,5.693,5.693h39.678c3.804,0,7.44,1.568,10.052,4.337  c2.61,2.768,3.964,6.49,3.742,10.288l-3.786,64.655l81.054-75.569c2.559-2.385,5.925-3.711,9.422-3.711h48.656  c7.631,0,13.817,6.186,13.817,13.817s-6.186,13.817-13.817,13.817h-43.215L97.64,457.84  C92.833,462.323,86.669,464.664,80.408,464.664z"
   id="path173" />
<path
   style="fill:#B0DACC;"
   d="M478.674,61.154H194.781c-10.774,0-19.51,8.735-19.51,19.509v66.918h141.947  c10.774,0,19.509,8.735,19.509,19.51v114.719h1.784l85.268,79.497c7.595,7.081,19.945,1.275,19.338-9.092l-4.123-70.407h39.678  c10.774,0,19.509-8.735,19.509-19.509V80.663C498.183,69.888,489.448,61.154,478.674,61.154z"
   id="path175" />
<g
   id="g183">
	<path
   style="fill:#211E48;"
   d="M431.548,378.243c-6.361,0-12.464-2.425-17.19-6.83l-82.07-76.515   c-5.452-1.849-9.378-7.011-9.378-13.089V167.09c0-3.138-2.553-5.693-5.693-5.693H175.272c-7.631,0-13.817-6.186-13.817-13.817   V80.663c0-18.377,14.95-33.326,33.326-33.326h283.892c18.376,0,33.326,14.95,33.326,33.326V262.3   c0,18.376-14.95,33.326-33.326,33.326h-25.029l3.266,55.782c0.413,7.054-1.995,13.733-6.781,18.808   C445.319,375.317,438.546,378.243,431.548,378.243z M350.545,274.138l78.443,73.133l-3.786-64.654   c-0.222-3.798,1.132-7.519,3.742-10.288c2.611-2.768,6.247-4.337,10.052-4.337h39.678c3.138,0,5.693-2.553,5.693-5.693V80.663   c0-3.138-2.553-5.693-5.693-5.693H194.781c-3.139,0-5.693,2.553-5.693,5.693v53.101h128.13c18.376,0,33.326,14.95,33.326,33.326   V274.138z"
   id="path177" />
	<path
   style="fill:#211E48;"
   d="M256,240.425H90.197c-7.631,0-13.817-6.186-13.817-13.817c0-7.631,6.186-13.817,13.817-13.817H256   c7.631,0,13.817,6.186,13.817,13.817C269.817,234.239,263.631,240.425,256,240.425z"
   id="path179" />
	<path
   style="fill:#211E48;"
   d="M234.122,311.273H112.073c-7.631,0-13.817-6.186-13.817-13.817c0-7.631,6.186-13.817,13.817-13.817   h122.049c7.631,0,13.817,6.186,13.817,13.817C247.939,305.087,241.753,311.273,234.122,311.273z"
   id="path181" />
</g>
<g
   id="g185">
</g>
<g
   id="g187">
</g>
<g
   id="g189">
</g>
<g
   id="g191">
</g>
<g
   id="g193">
</g>
<g
   id="g195">
</g>
<g
   id="g197">
</g>
<g
   id="g199">
</g>
<g
   id="g201">
</g>
<g
   id="g203">
</g>
<g
   id="g205">
</g>
<g
   id="g207">
</g>
<g
   id="g209">
</g>
<g
   id="g211">
</g>
<g
   id="g213">
</g>
<path
   style="fill:#280b0b;stroke-width:0.703297"
   d="m 389.62637,310.01328 -38.32967,-35.75851 -0.35165,-57.12739 c -0.34858,-56.62926 -0.36506,-57.16288 -1.8905,-61.19883 -3.42623,-9.06504 -10.87204,-16.74324 -19.68366,-20.29805 l -4.09616,-1.65248 -68.04396,-0.18944 -68.04396,-0.18943 V 106.48174 79.364328 l 2.05579,-2.05579 2.05579,-2.055791 h 143.5586 143.5586 l 1.72626,1.726274 1.72628,1.726274 v 92.561725 c 0,58.59963 -0.25088,93.03049 -0.68376,93.83933 -0.37606,0.70269 -1.24639,1.54784 -1.93406,1.87812 -0.68767,0.33028 -11.74476,0.76312 -24.5713,0.96186 l -23.32099,0.36136 -2.70099,2.14582 c -1.48554,1.18019 -3.44808,3.63589 -4.36119,5.45712 l -1.66019,3.3113 1.89186,31.94058 c 1.04053,17.56732 1.78762,32.54104 1.6602,33.27493 -0.17549,1.0108 -9.52595,-7.33647 -38.56134,-34.42416 z"
   id="path262" /><path
   style="fill:#2b0000;stroke-width:0.703297"
   d="m 418.09457,335.64835 c -7.3513,-6.60587 -20.20985,-18.51744 -56.95171,-52.7574 L 352,274.37067 l -0.71291,-58.24029 -0.7129,-58.24027 -2.42854,-4.92308 c -3.38169,-6.85527 -10.18012,-13.61482 -16.96192,-16.8649 l -5.16603,-2.47576 h -67.30297 c -37.01664,0 -67.80359,-0.1921 -68.41545,-0.42689 -0.9872,-0.37882 -1.11247,-3.41221 -1.11247,-26.93896 V 79.748454 l 2.3192,-2.247853 2.3192,-2.247854 h 143.13164 143.13164 l 1.98384,2.070686 1.98384,2.070685 -0.50745,92.698552 c -0.43223,78.95777 -0.6566,92.85312 -1.51364,93.74139 -1.06125,1.09993 -16.70847,1.92595 -39.0261,2.06022 l -10.26574,0.0618 -2.54666,2.47329 c -1.40067,1.36031 -3.32255,3.81306 -4.27086,5.45055 l -1.72418,2.97726 1.3121,21.45055 c 1.96642,32.14729 2.3785,42.9011 1.64396,42.9011 -0.3572,0 -4.43556,-3.4022 -9.06303,-7.56044 z"
   id="path264" /><path
   style="fill:#2b0000;stroke-width:0.703297"
   d="m 423.23727,339.90442 c -6.47253,-5.68185 -18.0402,-16.31093 -43.76085,-40.21012 l -26.77312,-24.87713 -0.43887,-10.28771 c -0.24137,-5.65824 -0.66459,-31.96682 -0.94049,-58.46353 l -0.50163,-48.17582 -2.5499,-4.92308 c -3.43338,-6.62882 -10.28395,-13.48707 -16.69881,-16.71754 l -4.93097,-2.4832 -67.96614,-0.24578 c -37.38138,-0.13518 -68.22982,-0.50923 -68.55209,-0.83121 -0.32226,-0.32198 -0.69216,-12.30533 -0.82199,-26.62966 l -0.23605,-26.044228 2.30808,-2.381332 2.30808,-2.381333 h 143.20299 143.20298 l 1.958,2.043723 1.95802,2.043722 -0.42972,70.923308 c -0.23635,39.00782 -0.62049,80.83531 -0.85364,92.94998 l -0.42391,22.02666 -1.85192,0.71518 c -1.01855,0.39335 -12.29587,1.0432 -25.0607,1.44411 -26.34145,0.82731 -24.18221,0.27434 -28.91535,7.40512 l -2.47272,3.72531 1.41766,24.77902 c 1.90797,33.34923 2.09472,38.46931 1.41834,38.88733 -0.31778,0.1964 -1.93566,-0.83491 -3.59528,-2.29179 z"
   id="path266" /><path
   style="fill:#000000;stroke-width:0.703297"
   d="m 423.60255,340.24938 c -4.73224,-4.03924 -23.90158,-21.63193 -47.71306,-43.78873 l -23.18619,-21.57497 -0.44444,-7.50877 c -0.24444,-4.12983 -0.68163,-30.51167 -0.97153,-58.62632 l -0.52709,-51.11755 -2.83139,-5.14619 c -3.59109,-6.52702 -9.94164,-12.81533 -16.32833,-16.16831 l -4.9192,-2.58256 -67.98564,-0.23063 c -37.3921,-0.12684 -68.24925,-0.49401 -68.57143,-0.81592 -0.32218,-0.32192 -0.68915,-12.30821 -0.81549,-26.63621 l -0.2297,-26.050908 2.30173,-2.374783 2.30173,-2.374782 h 143.20299 143.20298 l 1.99207,2.07928 1.99208,2.079279 -0.46212,78.624024 c -0.25417,43.2432 -0.66176,85.0458 -0.90575,92.89465 -0.40696,13.09077 -0.55509,14.33029 -1.79157,14.99204 -0.74937,0.40105 -11.24536,1.03733 -23.63607,1.43285 -12.25846,0.3913 -22.97575,0.84477 -23.8162,1.00772 -1.96237,0.38048 -5.38062,3.80562 -7.63215,7.64757 l -1.76567,3.01288 1.36531,23.12584 c 2.18611,37.02905 2.28153,39.50507 1.54005,39.96333 -0.37755,0.23334 -1.89222,-0.60493 -3.36592,-1.86283 z"
   id="path268" /><path
   style="fill:#ffffff;stroke-width:0.703297"
   d="M 73.344028,463.19713 C 63.10997,459.85503 56.3657,451.47251 55.741414,441.31868 c -0.166477,-2.70769 0.357667,-15.69231 1.164764,-28.85472 0.807096,-13.1624 1.467448,-25.42613 1.467448,-27.25274 v -3.32111 h -13.23347 c -7.278409,0 -15.111376,-0.343 -17.406594,-0.76223 C 15.793604,378.94703 5.9104141,370.30526 1.8599103,358.50419 0.35206084,354.11109 0.35159286,354.08469 0.14863065,261.97802 0.01705832,202.26893 0.19874011,167.74239 0.66489389,163.86813 2.2807033,150.43896 11.178079,139.61506 23.810345,135.71104 c 4.309469,-1.33186 6.861978,-1.38137 71.208795,-1.38137 h 66.7391 l 0.0405,-28.65934 c 0.035,-24.737403 0.20588,-29.29274 1.24879,-33.287869 2.97546,-11.398145 11.435,-19.91112 23.27791,-23.424906 3.45953,-1.02644 17.62983,-1.133379 150.18191,-1.133379 129.43794,0 146.84215,0.125075 150.51478,1.081673 13.12315,3.418146 22.75659,14.843585 24.31492,28.83793 0.44979,4.039305 0.63574,39.830351 0.50971,98.109891 -0.19836,91.72285 -0.19888,91.75206 -1.70668,96.14502 -2.81861,8.21198 -7.68853,14.1887 -15.26066,18.729 -6.28979,3.77142 -11.51923,4.65693 -27.50178,4.65693 h -13.75128 v 3.3211 c 0,1.82661 0.66036,14.09035 1.46745,27.25275 0.8071,13.1624 1.33125,26.14702 1.16477,28.85472 -0.52641,8.56172 -5.29527,15.75005 -13.34459,20.11492 -4.13349,2.24144 -4.82531,2.39057 -11.08982,2.39057 -10.70294,0 -9.69823,0.73174 -47.97445,-34.93997 l -33.25632,-30.99339 -0.36568,22.06558 c -0.39817,24.02737 -0.47467,24.51174 -5.12414,32.44548 -2.3792,4.05978 -8.59888,9.82061 -13.02358,12.06278 -6.936,3.51474 -11.23701,4.0355 -31.35866,3.79688 -18.07125,-0.2143 -18.3938,-0.24396 -21.4057,-1.96826 -7.35577,-4.21116 -9.0202,-13.79738 -3.48935,-20.09667 4.19452,-4.7773 4.58084,-4.85725 24.48139,-5.06651 9.86374,-0.10372 18.66701,-0.35235 19.56283,-0.5525 3.76323,-0.84083 3.64596,2.24569 3.64596,-95.96221 0,-97.25792 0.10067,-94.41581 -3.4107,-96.29504 -1.00385,-0.53724 -43.58562,-0.7599 -145.32228,-0.7599 H 30.881119 l -1.726274,1.72627 -1.726274,1.72627 v 93.12394 c 0,92.42655 0.01066,93.13748 1.423448,94.93356 l 1.423448,1.80961 23.016113,0.2193 c 22.772343,0.21697 23.047107,0.23705 25.942649,1.8961 1.6096,0.92225 3.537646,2.50467 4.284554,3.51648 3.173275,4.29877 3.197419,5.04456 1.230727,38.02159 -1.015623,17.02975 -1.748093,32.08271 -1.627717,33.45103 l 0.218866,2.48785 41.494501,-38.7077 c 38.212,-35.64565 41.78386,-38.79352 45.1522,-39.79255 3.07082,-0.91078 7.81934,-1.05024 29.5952,-0.86918 l 25.93751,0.21567 3.40514,2.10989 c 6.84054,4.23852 8.65117,12.41482 4.15774,18.77521 -4.0239,5.69578 -4.5167,5.79318 -31.32375,6.19182 l -23.64739,0.35165 -41.70144,38.86318 c -31.73592,29.57593 -42.616309,39.31078 -45.5298,40.73622 -4.621644,2.26116 -12.822865,2.8953 -17.536542,1.35597 z m 353.899222,-151.79651 -1.87473,-31.56841 1.8023,-3.65237 c 1.09406,-2.21713 2.82497,-4.34329 4.40479,-5.41061 l 2.60249,-1.75824 23.38301,-0.35165 23.38301,-0.35165 1.81365,-1.70501 1.81366,-1.70501 v -93.0067 c 0,-51.15368 -0.19659,-93.519013 -0.43688,-94.145175 -1.28147,-3.339468 5.34041,-3.196344 -147.88458,-3.196344 H 192.78174 l -1.97329,1.696786 -1.97329,1.696785 -0.1989,28.176498 -0.19891,28.1765 68.41869,0.19265 68.41869,0.19265 5.49167,2.62223 c 9.65558,4.61045 16.92121,13.77422 18.76835,23.67156 0.43352,2.32289 0.71984,25.03939 0.74018,58.72528 l 0.0332,54.93697 39.17562,36.46473 c 38.50405,35.83962 39.17954,36.42531 39.40494,34.16583 0.12612,-1.26439 -0.61431,-16.50467 -1.64542,-33.8673 z"
   id="path270" /><path
   style="fill:#ffffff;stroke-width:0.703297"
   d="m 106.52036,309.53518 c -4.51447,-2.05064 -8.050977,-7.33967 -8.050977,-12.04067 0,-4.5749 3.351157,-9.72294 7.809967,-11.99765 2.65473,-1.35435 4.22593,-1.38219 67.71458,-1.19993 l 64.99678,0.18659 2.70245,2.15065 c 3.19399,2.54184 5.86728,7.40807 5.86728,10.6803 0,5.05651 -3.26554,9.98774 -8.08791,12.21341 -2.6694,1.23201 -6.06639,1.29837 -66.46154,1.29837 -60.24889,0 -63.80016,-0.069 -66.49063,-1.29107 z"
   id="path272" /><path
   style="fill:#ffffff;stroke-width:0.703297"
   d="m 84.747253,238.82735 c -4.362196,-1.9471 -8.104374,-7.75059 -8.072467,-12.51905 0.01935,-2.89142 2.084738,-7.44978 4.296979,-9.48352 4.255893,-3.9125 -0.348391,-3.72719 92.192455,-3.71043 81.23358,0.0147 85.43273,0.077 88.1396,1.30651 10.13697,4.60459 10.6547,19.16525 0.85021,23.91152 l -3.08164,1.4918 -86.10762,-0.0275 c -70.37613,-0.0225 -86.493095,-0.19959 -88.217517,-0.9693 z"
   id="path274" /></svg>
